<?xml version="1.0" encoding="utf-8"?>
<!DOCTYPE svg PUBLIC "-//W3C//DTD SVG 1.1//EN" "http://www.w3.org/Graphics/SVG/1.1/DTD/svg11.dtd">
<svg version="1.1" id="Layer_1" xmlns="http://www.w3.org/2000/svg" xmlns:xlink="http://www.w3.org/1999/xlink" x="0px" y="0px"
	 width="821.326px" height="907.827px" viewBox="0 0 821.326 907.827" enable-background="new 0 0 821.326 907.827"
	 xml:space="preserve">
<rect y="0" fill="#E6E6E6" width="821.326" height="907.827"/>
<rect x="100.33" y="111.087" fill="#14161A" width="616.719" height="306.41"/>
<polygon fill="#FFFFFF" points="316.683,282.433 310.22,276.398 281.838,276.398 288.302,282.433 "/>
<polygon fill="#FFFFFF" points="288.302,261.277 281.839,267.312 310.22,267.312 316.683,261.277 "/>
<polygon fill="#FFFFFF" points="316.681,252.189 310.22,246.152 281.841,246.152 288.302,252.189 "/>
<g>
	<defs>
		<rect id="SVGID_1_" y="0" width="821.326" height="907.827"/>
	</defs>
	<clipPath id="SVGID_2_">
		<use xlink:href="#SVGID_1_"  overflow="visible"/>
	</clipPath>
	<path clip-path="url(#SVGID_2_)" fill="#FFFFFF" d="M278.853,258.162l-4.27-4.27l-15.83,15.829
		c-0.568,0.568-0.882,1.328-0.88,2.134c0,0.807,0.312,1.565,0.88,2.133l15.83,15.83l4.27-4.267l-13.695-13.696L278.853,258.162z"/>
	<path clip-path="url(#SVGID_2_)" fill="#FFFFFF" d="M339.769,254.599l-15.824-15.832l-4.268,4.269l13.688,13.696l-13.688,13.695
		l4.268,4.268l15.824-15.826c0.57-0.573,0.885-1.332,0.885-2.139C340.651,255.923,340.338,255.167,339.769,254.599"/>
	<path clip-path="url(#SVGID_2_)" fill="#FFFFFF" d="M374.239,256.009c1.314,1.099,1.972,2.791,1.972,5.077s-0.671,3.96-2.012,5.022
		c-1.341,1.062-3.398,1.592-6.17,1.592h-3.348v5.536h-3.185v-18.874h6.479C370.838,254.362,372.925,254.913,374.239,256.009
		 M371.985,263.799c0.639-0.675,0.958-1.665,0.958-2.97c0-1.305-0.404-2.227-1.215-2.767c-0.809-0.54-2.079-0.81-3.806-0.81h-3.241
		v7.56h3.7C370.145,264.813,371.345,264.475,371.985,263.799"/>
	<path clip-path="url(#SVGID_2_)" fill="#FFFFFF" d="M387.443,268.916c0.863,1.008,2.033,1.512,3.51,1.512
		c1.474,0,2.646-0.504,3.51-1.512c0.863-1.008,1.294-2.376,1.294-4.104v-10.449h3.188v10.584c0,2.718-0.748,4.81-2.242,6.277
		c-1.494,1.467-3.41,2.201-5.75,2.201c-2.34,0-4.258-0.734-5.752-2.201c-1.494-1.467-2.241-3.559-2.241-6.277v-10.584h3.186v10.449
		C386.146,266.54,386.578,267.908,387.443,268.916"/>
	<path clip-path="url(#SVGID_2_)" fill="#FFFFFF" d="M422.243,260.492c0,3.114-1.356,5.076-4.076,5.886l4.942,6.858h-4.051
		l-4.508-6.345h-4.187v6.345h-3.185v-18.873h7.019c2.879,0,4.942,0.486,6.185,1.458C421.624,256.793,422.243,258.35,422.243,260.492
		 M418.006,263.165c0.647-0.558,0.973-1.454,0.973-2.687c0-1.232-0.334-2.079-1-2.538s-1.854-0.688-3.563-0.688h-4.051v6.75h3.969
		C416.133,264.002,417.357,263.723,418.006,263.165"/>
	<polygon clip-path="url(#SVGID_2_)" fill="#FFFFFF" points="443.331,254.363 443.331,257.36 433.262,257.36 433.262,262.355 
		442.307,262.355 442.307,265.19 433.262,265.19 433.262,270.239 443.655,270.239 443.655,273.236 430.075,273.236 430.075,254.363 
			"/>
	<path clip-path="url(#SVGID_2_)" fill="#FFFFFF" d="M456.683,256.847c-0.928,0-1.687,0.189-2.28,0.567
		c-0.595,0.378-0.892,0.95-0.892,1.715c0,0.765,0.297,1.35,0.892,1.755c0.594,0.405,1.856,0.841,3.793,1.309
		c1.935,0.468,3.392,1.125,4.375,1.971c0.979,0.847,1.47,2.093,1.47,3.74s-0.621,2.983-1.863,4.009
		c-1.241,1.026-2.871,1.539-4.887,1.539c-2.953,0-5.572-1.017-7.857-3.051l1.998-2.403c1.908,1.657,3.89,2.484,5.939,2.484
		c1.028,0,1.842-0.22,2.446-0.661c0.601-0.441,0.903-1.026,0.903-1.755s-0.284-1.296-0.851-1.701
		c-0.567-0.405-1.543-0.774-2.93-1.107c-1.386-0.333-2.44-0.639-3.158-0.918c-0.721-0.279-1.36-0.644-1.918-1.094
		c-1.116-0.846-1.674-2.142-1.674-3.888c0-1.745,0.635-3.092,1.903-4.036c1.271-0.945,2.84-1.418,4.711-1.418
		c1.205,0,2.402,0.198,3.593,0.594c1.187,0.396,2.213,0.954,3.077,1.674l-1.7,2.403c-0.56-0.503-1.315-0.918-2.269-1.242
		C458.55,257.009,457.611,256.847,456.683,256.847"/>
	<path clip-path="url(#SVGID_2_)" fill="#FFFFFF" d="M479.835,270.347c1.099,0,2.043-0.184,2.836-0.553
		c0.791-0.369,1.619-0.959,2.482-1.769l2.053,2.106c-1.998,2.214-4.424,3.321-7.276,3.321s-5.22-0.918-7.101-2.754
		s-2.821-4.158-2.821-6.966c0-2.808,0.959-5.148,2.875-7.02c1.918-1.872,4.338-2.808,7.264-2.808c2.925,0,5.369,1.08,7.33,3.24
		l-2.026,2.214c-0.899-0.864-1.75-1.467-2.551-1.809c-0.8-0.342-1.742-0.513-2.822-0.513c-1.908,0-3.51,0.617-4.804,1.85
		c-1.297,1.233-1.946,2.808-1.946,4.725s0.646,3.519,1.933,4.806C476.546,269.704,478.071,270.347,479.835,270.347"/>
	<path clip-path="url(#SVGID_2_)" fill="#FFFFFF" d="M509.399,260.492c0,3.114-1.358,5.076-4.076,5.886l4.94,6.858h-4.049
		l-4.511-6.345h-4.186v6.345h-3.185v-18.873h7.019c2.881,0,4.942,0.486,6.184,1.458C508.778,256.793,509.399,258.35,509.399,260.492
		 M505.161,263.165c0.646-0.558,0.972-1.454,0.972-2.687c0-1.232-0.332-2.079-0.998-2.538s-1.856-0.688-3.565-0.688h-4.051v6.75
		h3.971C503.288,264.002,504.514,263.723,505.161,263.165"/>
	<rect x="517.229" y="254.363" clip-path="url(#SVGID_2_)" fill="#FFFFFF" width="3.187" height="18.873"/>
	<path clip-path="url(#SVGID_2_)" fill="#FFFFFF" d="M541.639,256.009c1.313,1.099,1.971,2.791,1.971,5.077s-0.67,3.96-2.012,5.022
		c-1.341,1.062-3.397,1.592-6.168,1.592h-3.351v5.536h-3.185v-18.874h6.479C538.236,254.362,540.323,254.913,541.639,256.009
		 M539.384,263.799c0.64-0.675,0.959-1.665,0.959-2.97c0-1.305-0.405-2.227-1.217-2.767c-0.808-0.54-2.078-0.81-3.806-0.81h-3.241
		v7.56h3.7C537.542,264.813,538.745,264.475,539.384,263.799"/>
	<polygon clip-path="url(#SVGID_2_)" fill="#FFFFFF" points="557.729,257.279 557.729,273.236 554.542,273.236 554.542,257.279 
		548.82,257.279 548.82,254.363 563.453,254.363 563.453,257.279 	"/>
	<rect x="100.33" y="416.672" clip-path="url(#SVGID_2_)" fill="#FFFFFF" width="616.719" height="306.41"/>
	<polygon clip-path="url(#SVGID_2_)" fill="#14161A" points="316.683,588.017 310.22,581.982 281.838,581.982 288.302,588.017 	"/>
	<polygon clip-path="url(#SVGID_2_)" fill="#14161A" points="288.302,566.861 281.839,572.896 310.22,572.896 316.683,566.861 	"/>
	<polygon clip-path="url(#SVGID_2_)" fill="#14161A" points="316.681,557.773 310.22,551.736 281.841,551.736 288.302,557.773 	"/>
	<path clip-path="url(#SVGID_2_)" fill="#14161A" d="M278.853,563.746l-4.27-4.27l-15.83,15.828
		c-0.568,0.568-0.882,1.328-0.88,2.135c0,0.807,0.312,1.564,0.88,2.133l15.83,15.83l4.27-4.268l-13.695-13.695L278.853,563.746z"/>
	<path clip-path="url(#SVGID_2_)" fill="#14161A" d="M339.769,560.183l-15.824-15.832l-4.268,4.269l13.688,13.696l-13.688,13.695
		l4.268,4.268l15.824-15.826c0.57-0.572,0.885-1.332,0.885-2.139C340.651,561.507,340.338,560.751,339.769,560.183"/>
	<path clip-path="url(#SVGID_2_)" fill="#14161A" d="M374.239,561.594c1.314,1.098,1.972,2.79,1.972,5.076
		c0,2.285-0.671,3.959-2.012,5.021c-1.341,1.063-3.398,1.593-6.17,1.593h-3.348v5.535h-3.185v-18.873h6.479
		C370.838,559.947,372.925,560.497,374.239,561.594 M371.985,569.383c0.639-0.675,0.958-1.664,0.958-2.971
		c0-1.305-0.404-2.227-1.215-2.767c-0.809-0.54-2.079-0.81-3.806-0.81h-3.241v7.56h3.7
		C370.145,570.396,371.345,570.058,371.985,569.383"/>
	<path clip-path="url(#SVGID_2_)" fill="#14161A" d="M387.443,574.5c0.863,1.008,2.033,1.512,3.51,1.512
		c1.474,0,2.646-0.504,3.51-1.512c0.863-1.008,1.294-2.377,1.294-4.104v-10.449h3.188v10.584c0,2.718-0.748,4.811-2.242,6.277
		c-1.494,1.468-3.41,2.2-5.75,2.2c-2.34,0-4.258-0.732-5.752-2.2c-1.494-1.467-2.241-3.56-2.241-6.277v-10.584h3.186v10.449
		C386.146,572.124,386.578,573.493,387.443,574.5"/>
	<path clip-path="url(#SVGID_2_)" fill="#14161A" d="M422.243,566.076c0,3.114-1.356,5.076-4.076,5.886l4.942,6.858h-4.051
		l-4.508-6.344h-4.187v6.344h-3.185v-18.873h7.019c2.879,0,4.942,0.485,6.185,1.458
		C421.624,562.377,422.243,563.935,422.243,566.076 M418.006,568.749c0.647-0.558,0.973-1.453,0.973-2.686
		c0-1.233-0.334-2.08-1-2.539s-1.854-0.688-3.563-0.688h-4.051v6.75h3.969C416.133,569.586,417.357,569.307,418.006,568.749"/>
	<polygon clip-path="url(#SVGID_2_)" fill="#14161A" points="443.331,559.947 443.331,562.944 433.262,562.944 433.262,567.939 
		442.307,567.939 442.307,570.774 433.262,570.774 433.262,575.823 443.655,575.823 443.655,578.82 430.075,578.82 430.075,559.947 
			"/>
	<path clip-path="url(#SVGID_2_)" fill="#14161A" d="M456.683,562.43c-0.928,0-1.687,0.189-2.28,0.568
		c-0.595,0.377-0.892,0.949-0.892,1.714s0.297,1.351,0.892,1.755c0.594,0.405,1.856,0.842,3.793,1.31
		c1.935,0.468,3.392,1.125,4.375,1.972c0.979,0.846,1.47,2.092,1.47,3.738c0,1.647-0.621,2.984-1.863,4.01
		c-1.241,1.026-2.871,1.538-4.887,1.538c-2.953,0-5.572-1.016-7.857-3.05l1.998-2.402c1.908,1.656,3.89,2.483,5.939,2.483
		c1.028,0,1.842-0.22,2.446-0.661c0.601-0.441,0.903-1.026,0.903-1.756c0-0.729-0.284-1.295-0.851-1.701
		c-0.567-0.404-1.543-0.773-2.93-1.106c-1.386-0.333-2.44-0.639-3.158-0.918c-0.721-0.278-1.36-0.644-1.918-1.094
		c-1.116-0.846-1.674-2.142-1.674-3.888s0.635-3.092,1.903-4.037c1.271-0.944,2.84-1.417,4.711-1.417
		c1.205,0,2.402,0.198,3.593,0.595c1.187,0.396,2.213,0.952,3.077,1.674l-1.7,2.402c-0.56-0.504-1.315-0.918-2.269-1.242
		C458.55,562.592,457.611,562.43,456.683,562.43"/>
	<path clip-path="url(#SVGID_2_)" fill="#14161A" d="M479.835,575.93c1.099,0,2.043-0.184,2.836-0.553
		c0.791-0.369,1.619-0.959,2.482-1.769l2.053,2.106c-1.998,2.213-4.424,3.319-7.276,3.319s-5.22-0.916-7.101-2.753
		c-1.881-1.836-2.821-4.158-2.821-6.966s0.959-5.147,2.875-7.021c1.918-1.871,4.338-2.808,7.264-2.808c2.925,0,5.369,1.08,7.33,3.24
		l-2.026,2.214c-0.899-0.864-1.75-1.467-2.551-1.809c-0.8-0.342-1.742-0.514-2.822-0.514c-1.908,0-3.51,0.617-4.804,1.85
		c-1.297,1.233-1.946,2.809-1.946,4.725c0,1.918,0.646,3.52,1.933,4.807C476.546,575.288,478.071,575.93,479.835,575.93"/>
	<path clip-path="url(#SVGID_2_)" fill="#14161A" d="M509.399,566.076c0,3.114-1.358,5.076-4.076,5.886l4.94,6.858h-4.049
		l-4.511-6.344h-4.186v6.344h-3.185v-18.873h7.019c2.881,0,4.942,0.485,6.184,1.458
		C508.778,562.377,509.399,563.935,509.399,566.076 M505.161,568.749c0.646-0.558,0.972-1.453,0.972-2.686
		c0-1.233-0.332-2.08-0.998-2.539s-1.856-0.688-3.565-0.688h-4.051v6.75h3.971C503.288,569.586,504.514,569.307,505.161,568.749"/>
	<rect x="517.229" y="559.947" clip-path="url(#SVGID_2_)" fill="#14161A" width="3.187" height="18.873"/>
	<path clip-path="url(#SVGID_2_)" fill="#14161A" d="M541.639,561.594c1.313,1.098,1.971,2.79,1.971,5.076
		c0,2.285-0.67,3.959-2.012,5.021c-1.341,1.063-3.397,1.593-6.168,1.593h-3.351v5.535h-3.185v-18.873h6.479
		C538.236,559.947,540.323,560.497,541.639,561.594 M539.384,569.383c0.64-0.675,0.959-1.664,0.959-2.971
		c0-1.305-0.405-2.227-1.217-2.767c-0.808-0.54-2.078-0.81-3.806-0.81h-3.241v7.56h3.7
		C537.542,570.396,538.745,570.058,539.384,569.383"/>
	<polygon clip-path="url(#SVGID_2_)" fill="#14161A" points="557.729,562.863 557.729,578.82 554.542,578.82 554.542,562.863 
		548.82,562.863 548.82,559.947 563.453,559.947 563.453,562.863 	"/>
	<path clip-path="url(#SVGID_2_)" fill="#808080" d="M105.519,806.194h-4.896v-11.185h4.351c0.758,0,1.412,0.092,1.961,0.272
		c0.549,0.182,0.962,0.427,1.24,0.737c0.502,0.574,0.752,1.226,0.752,1.951c0,0.875-0.283,1.525-0.848,1.951
		c-0.192,0.15-0.325,0.243-0.4,0.28c-0.075,0.038-0.208,0.099-0.4,0.185c0.694,0.148,1.245,0.461,1.656,0.936
		c0.411,0.475,0.616,1.064,0.616,1.768c0,0.779-0.267,1.467-0.8,2.064C108.132,805.847,107.055,806.194,105.519,806.194
		 M103.119,799.539h1.184c0.693,0,1.208-0.075,1.544-0.225c0.335-0.149,0.503-0.473,0.503-0.969s-0.154-0.823-0.463-0.983
		c-0.31-0.16-0.832-0.239-1.568-0.239h-1.2V799.539z M103.119,804.082h1.712c0.715,0,1.251-0.088,1.608-0.264
		c0.357-0.176,0.535-0.522,0.535-1.04c0-0.517-0.189-0.858-0.567-1.024c-0.379-0.165-0.984-0.248-1.816-0.248h-1.472V804.082z"/>
	<polygon clip-path="url(#SVGID_2_)" fill="#808080" points="111.646,806.194 111.646,795.009 114.142,795.009 114.142,803.97 
		118.91,803.97 118.91,806.194 	"/>
	<path clip-path="url(#SVGID_2_)" fill="#808080" d="M128.702,806.193l-1.04-2.415h-4.688l-1.04,2.415h-2.656l4.832-11.184h2.416
		l4.832,11.184H128.702z M125.326,798.337l-1.408,3.248h2.801L125.326,798.337z"/>
	<path clip-path="url(#SVGID_2_)" fill="#808080" d="M137.79,803.986c1.227,0,2.229-0.485,3.008-1.456l1.6,1.647
		c-1.269,1.43-2.765,2.145-4.488,2.145s-3.141-0.544-4.256-1.632c-1.114-1.088-1.672-2.462-1.672-4.12s0.569-3.043,1.704-4.152
		c1.136-1.109,2.526-1.664,4.168-1.664c1.834,0,3.371,0.699,4.608,2.096l-1.552,1.761c-0.789-0.981-1.77-1.472-2.943-1.472
		c-0.94,0-1.742,0.307-2.408,0.92c-0.667,0.613-1,1.439-1,2.48c0,1.039,0.314,1.874,0.943,2.504
		C136.132,803.671,136.894,803.986,137.79,803.986"/>
	<path clip-path="url(#SVGID_2_)" fill="#808080" d="M144.367,795.009h2.496v4.593l4.224-4.593h3.088l-4.448,4.944
		c0.384,0.534,1.093,1.528,2.128,2.984c1.034,1.456,1.808,2.542,2.32,3.256h-2.912l-3.28-4.416l-1.12,1.248v3.168h-2.496V795.009z"
		/>
	<path clip-path="url(#SVGID_2_)" fill="#808080" d="M155.831,801.707c-0.272-0.272-0.408-0.605-0.408-1s0.136-0.729,0.408-1
		c0.271-0.272,0.604-0.408,1-0.408c0.394,0,0.728,0.136,1,0.408c0.271,0.271,0.407,0.605,0.407,1s-0.136,0.728-0.407,1
		c-0.272,0.271-0.606,0.407-1,0.407C156.435,802.114,156.102,801.978,155.831,801.707 M155.831,805.914
		c-0.272-0.271-0.408-0.605-0.408-1s0.136-0.728,0.408-1c0.271-0.271,0.604-0.408,1-0.408c0.394,0,0.728,0.137,1,0.408
		c0.271,0.272,0.407,0.605,0.407,1s-0.136,0.729-0.407,1c-0.272,0.272-0.606,0.408-1,0.408
		C156.435,806.322,156.102,806.186,155.831,805.914"/>
	<path clip-path="url(#SVGID_2_)" fill="#808080" d="M109.982,832.417h-1.728l-0.464,2.656h1.968l-0.352,1.76h-1.904l-0.448,2.561
		h-1.776l0.448-2.561h-2.352l-0.448,2.561h-1.792l0.448-2.561h-1.648l0.352-1.76h1.6l0.463-2.656h-1.823l0.352-1.76h1.776
		l0.464-2.72h1.776l-0.464,2.72h2.352l0.464-2.72h1.792l-0.496,2.72h1.792L109.982,832.417z M106.495,832.417h-2.352l-0.48,2.656
		h2.352L106.495,832.417z"/>
	<polygon clip-path="url(#SVGID_2_)" fill="#808080" points="111.47,828.21 115.534,828.21 115.534,839.394 113.742,839.394 
		113.742,829.89 111.47,829.89 	"/>
	<polygon clip-path="url(#SVGID_2_)" fill="#808080" points="122.494,834.867 122.494,832.818 124.286,832.818 124.286,834.867 
		125.631,834.867 125.631,836.578 124.286,836.578 124.286,839.394 122.494,839.394 122.494,836.578 117.694,836.578 
		117.694,834.914 121.807,828.21 123.87,828.21 119.822,834.867 	"/>
	<polygon clip-path="url(#SVGID_2_)" fill="#808080" points="126.526,828.21 130.59,828.21 130.59,839.394 128.798,839.394 
		128.798,829.89 126.526,829.89 	"/>
	<path clip-path="url(#SVGID_2_)" fill="#808080" d="M137.823,829.699c-0.992,0-1.723,0.336-2.193,1.008
		c-0.468,0.672-0.709,1.578-0.719,2.72c0.266-0.299,0.65-0.579,1.152-0.841c0.501-0.261,1.056-0.392,1.664-0.392
		c1.002,0,1.842,0.333,2.52,1c0.677,0.667,1.015,1.552,1.015,2.656s-0.365,1.992-1.095,2.664c-0.731,0.672-1.651,1.008-2.76,1.008
		c-1.792,0-3.03-0.8-3.712-2.399c-0.384-0.918-0.576-1.953-0.576-3.104s0.122-2.112,0.368-2.88c0.245-0.768,0.581-1.376,1.008-1.824
		c0.832-0.875,1.853-1.313,3.064-1.313c1.21,0,2.306,0.378,3.288,1.137l-0.944,1.393c-0.246-0.214-0.573-0.406-0.985-0.576
		C138.508,829.784,138.143,829.699,137.823,829.699 M137.479,833.858c-0.646,0-1.185,0.179-1.616,0.536
		c-0.432,0.357-0.649,0.821-0.649,1.393c0,0.57,0.208,1.061,0.624,1.471c0.416,0.412,0.939,0.617,1.569,0.617
		c0.629,0,1.152-0.185,1.568-0.553c0.416-0.367,0.624-0.837,0.624-1.408c0-0.57-0.192-1.056-0.576-1.455
		C138.639,834.058,138.124,833.858,137.479,833.858"/>
	<polygon clip-path="url(#SVGID_2_)" fill="#808080" points="142.542,828.21 146.606,828.21 146.606,839.394 144.814,839.394 
		144.814,829.89 142.542,829.89 	"/>
	<path clip-path="url(#SVGID_2_)" fill="#808080" d="M151.31,836.85l-1.12,2.544h-2.016l4.928-11.184h2.017l4.927,11.184h-2.015
		l-1.12-2.544H151.31z M156.142,835.106l-2.032-4.608l-2.031,4.608H156.142z"/>
	<polygon clip-path="url(#SVGID_2_)" fill="#808080" points="240.648,797.169 240.648,806.194 238.152,806.194 238.152,797.169 
		234.984,797.169 234.984,795.009 243.816,795.009 243.816,797.169 	"/>
	<polygon clip-path="url(#SVGID_2_)" fill="#808080" points="250.455,806.194 247.959,806.194 247.959,801.778 244.088,795.009 
		246.791,795.009 249.207,799.169 251.623,795.009 254.328,795.009 250.455,801.778 	"/>
	<path clip-path="url(#SVGID_2_)" fill="#808080" d="M263.23,796.009c0.785,0.667,1.176,1.69,1.176,3.072s-0.403,2.392-1.207,3.032
		c-0.807,0.64-2.035,0.959-3.688,0.959h-1.488v3.121h-2.496v-11.185h3.951C261.195,795.009,262.447,795.342,263.23,796.009
		 M261.398,800.409c0.299-0.336,0.449-0.826,0.449-1.471c0-0.646-0.195-1.104-0.584-1.377c-0.39-0.271-0.996-0.408-1.816-0.408
		h-1.424v3.761h1.68C260.535,800.914,261.1,800.745,261.398,800.409"/>
	<polygon clip-path="url(#SVGID_2_)" fill="#808080" points="274.423,795.009 274.423,797.233 268.856,797.233 268.856,799.538 
		273.862,799.538 273.862,801.666 268.856,801.666 268.856,803.985 274.599,803.985 274.599,806.194 266.36,806.194 266.36,795.009 
			"/>
	<polygon clip-path="url(#SVGID_2_)" fill="#808080" points="284.502,795.009 284.502,797.202 279.318,797.202 279.318,799.618 
		284.246,799.618 284.246,801.809 279.318,801.809 279.318,806.194 276.822,806.194 276.822,795.009 	"/>
	<path clip-path="url(#SVGID_2_)" fill="#808080" d="M293.975,806.193l-1.04-2.415h-4.688l-1.04,2.415h-2.656l4.832-11.184h2.416
		l4.832,11.184H293.975z M290.599,798.337l-1.408,3.248h2.801L290.599,798.337z"/>
	<path clip-path="url(#SVGID_2_)" fill="#808080" d="M303.063,803.985c1.227,0,2.229-0.484,3.008-1.455l1.6,1.647
		c-1.269,1.43-2.765,2.144-4.488,2.144c-1.723,0-3.141-0.543-4.256-1.631c-1.114-1.088-1.672-2.462-1.672-4.121
		c0-1.658,0.569-3.042,1.704-4.151c1.136-1.109,2.526-1.664,4.168-1.664c1.834,0,3.371,0.698,4.608,2.096l-1.552,1.761
		c-0.789-0.982-1.77-1.473-2.943-1.473c-0.94,0-1.742,0.307-2.408,0.92c-0.667,0.613-1,1.44-1,2.48c0,1.039,0.314,1.875,0.943,2.504
		C301.404,803.67,302.167,803.985,303.063,803.985"/>
	<polygon clip-path="url(#SVGID_2_)" fill="#808080" points="317.703,795.009 317.703,797.233 312.135,797.233 312.135,799.538 
		317.142,799.538 317.142,801.666 312.135,801.666 312.135,803.985 317.879,803.985 317.879,806.194 309.639,806.194 
		309.639,795.009 	"/>
	<path clip-path="url(#SVGID_2_)" fill="#808080" d="M320.207,801.706c-0.272-0.271-0.408-0.605-0.408-1s0.136-0.729,0.408-1
		c0.271-0.271,0.604-0.408,1-0.408c0.394,0,0.728,0.137,1,0.408c0.271,0.271,0.407,0.605,0.407,1s-0.136,0.729-0.407,1
		c-0.272,0.271-0.606,0.408-1,0.408C320.811,802.114,320.478,801.976,320.207,801.706 M320.207,805.914
		c-0.272-0.272-0.408-0.605-0.408-1s0.136-0.728,0.408-1c0.271-0.272,0.604-0.408,1-0.408c0.394,0,0.728,0.136,1,0.408
		c0.271,0.272,0.407,0.605,0.407,1s-0.136,0.728-0.407,1c-0.272,0.272-0.606,0.407-1,0.407
		C320.811,806.321,320.478,806.186,320.207,805.914"/>
	<polygon clip-path="url(#SVGID_2_)" fill="#808080" points="237.977,839.393 236.087,839.393 236.087,828.209 239.032,828.209 
		242.409,835.233 245.784,828.209 248.71,828.209 248.71,839.393 246.825,839.393 246.825,830.657 242.919,838.417 241.864,838.417 
		237.977,830.657 	"/>
	<path clip-path="url(#SVGID_2_)" fill="#808080" d="M261.176,837.849c-1.131,1.104-2.53,1.655-4.194,1.655s-3.06-0.551-4.191-1.655
		c-1.131-1.104-1.695-2.479-1.695-4.128c0-1.648,0.564-3.023,1.695-4.128s2.527-1.656,4.191-1.656s3.063,0.552,4.194,1.656
		c1.131,1.104,1.695,2.479,1.695,4.128C262.871,835.371,262.307,836.746,261.176,837.849 M259.791,830.849
		c-0.762-0.789-1.699-1.185-2.809-1.185c-1.109,0-2.045,0.396-2.806,1.185c-0.764,0.79-1.145,1.747-1.145,2.872
		s0.381,2.082,1.145,2.872c0.761,0.789,1.697,1.184,2.806,1.184c1.11,0,2.047-0.395,2.809-1.184c0.762-0.79,1.145-1.747,1.145-2.872
		S260.553,831.639,259.791,830.849"/>
	<polygon clip-path="url(#SVGID_2_)" fill="#808080" points="273.639,828.209 275.528,828.209 275.528,839.393 273.479,839.393 
		267.145,831.233 267.145,839.393 265.256,839.393 265.256,828.209 267.145,828.209 273.639,836.561 	"/>
	<polygon clip-path="url(#SVGID_2_)" fill="#808080" points="282.855,829.937 282.855,839.393 280.966,839.393 280.966,829.937 
		277.576,829.937 277.576,828.209 286.248,828.209 286.248,829.937 	"/>
	<path clip-path="url(#SVGID_2_)" fill="#808080" d="M291.678,829.681c-0.549,0-1,0.112-1.352,0.336
		c-0.351,0.224-0.528,0.563-0.528,1.017c0,0.453,0.177,0.799,0.528,1.039c0.352,0.24,1.102,0.499,2.248,0.776
		c1.147,0.277,2.011,0.667,2.592,1.168s0.872,1.239,0.872,2.216s-0.368,1.768-1.103,2.376c-0.736,0.608-1.702,0.912-2.897,0.912
		c-1.749,0-3.301-0.603-4.656-1.808l1.185-1.424c1.13,0.98,2.303,1.472,3.519,1.472c0.609,0,1.091-0.131,1.448-0.392
		c0.358-0.262,0.537-0.608,0.537-1.041c0-0.432-0.168-0.768-0.504-1.008c-0.336-0.24-0.915-0.458-1.737-0.656
		c-0.821-0.197-1.445-0.378-1.872-0.543c-0.426-0.166-0.805-0.382-1.135-0.648c-0.662-0.502-0.993-1.27-0.993-2.305
		c0-1.033,0.376-1.832,1.128-2.392s1.683-0.84,2.792-0.84c0.715,0,1.424,0.118,2.128,0.353c0.704,0.234,1.313,0.564,1.824,0.992
		l-1.007,1.424c-0.331-0.299-0.78-0.545-1.344-0.736C292.785,829.777,292.228,829.681,291.678,829.681"/>
	<polygon clip-path="url(#SVGID_2_)" fill="#808080" points="306.23,828.209 306.23,829.985 300.263,829.985 300.263,832.945 
		305.623,832.945 305.623,834.625 300.263,834.625 300.263,837.618 306.421,837.618 306.421,839.393 298.375,839.393 
		298.375,828.209 	"/>
	<path clip-path="url(#SVGID_2_)" fill="#808080" d="M317.767,831.841c0,1.845-0.806,3.008-2.416,3.487l2.927,4.064h-2.4
		l-2.672-3.76h-2.479v3.76h-1.889v-11.184h4.16c1.707,0,2.928,0.287,3.664,0.862C317.399,829.649,317.767,830.571,317.767,831.841
		 M315.254,833.425c0.384-0.331,0.576-0.861,0.576-1.593c0-0.73-0.197-1.231-0.592-1.504c-0.394-0.271-1.098-0.408-2.112-0.408
		h-2.399v4h2.351C314.145,833.92,314.87,833.756,315.254,833.425"/>
	<path clip-path="url(#SVGID_2_)" fill="#808080" d="M329.415,831.841c0,1.845-0.806,3.008-2.416,3.487l2.927,4.064h-2.4
		l-2.672-3.76h-2.479v3.76h-1.889v-11.184h4.16c1.707,0,2.928,0.287,3.664,0.862C329.047,829.649,329.415,830.571,329.415,831.841
		 M326.902,833.425c0.384-0.331,0.576-0.861,0.576-1.593c0-0.73-0.197-1.231-0.592-1.504c-0.394-0.271-1.098-0.408-2.112-0.408
		h-2.399v4h2.351C325.793,833.92,326.519,833.756,326.902,833.425"/>
	<path clip-path="url(#SVGID_2_)" fill="#808080" d="M333.718,836.849l-1.12,2.544h-2.016l4.928-11.185h2.017l4.927,11.185h-2.015
		l-1.12-2.544H333.718z M338.55,835.105l-2.032-4.608l-2.031,4.608H338.55z"/>
	<polygon clip-path="url(#SVGID_2_)" fill="#808080" points="347.351,829.937 347.351,839.393 345.461,839.393 345.461,829.937 
		342.07,829.937 342.07,828.209 350.743,828.209 350.743,829.937 	"/>
</g>
</svg>
